Coordinates
version=1
nRows=15
nColumns=19
inDegrees=yes

Units are S.I. units (second, meters, Newtons, ...)
If the header above contains a line with 'inDegrees', this indicates whether rotational values are in degrees (yes) or radians (no).

endheader
time	pelvis_tilt	pelvis_list	pelvis_rotation	pelvis_tx	pelvis_ty	pelvis_tz	hip_flexion_r	hip_adduction_r	hip_rotation_r	knee_angle_r	knee_angle_r_beta	ankle_angle_r	hip_flexion_l	hip_adduction_l	hip_rotation_l	knee_angle_l	knee_angle_l_beta	ankle_angle_l
     11.00666667	     -1.00944789	     -2.89568358	     -7.46967251	      2.17515378	      1.05726107	      1.02400497	     23.63266561	      7.84479612	     -4.43996566	     22.23035838	      0.38799295	     -2.41041305	    -10.13586500	     -0.47807896	     -6.25696000	     50.43080447	      0.88018358	    -19.57597990
     11.01333333	     -0.23533409	     -3.42021508	     -7.71902434	      2.17431297	      1.05344398	      1.02433779	     22.62612990	      8.45862435	     -4.21507420	     23.12308729	      0.40357401	     -1.68620483	     -9.83082503	     -1.10403964	     -6.40406173	     53.61073664	      0.93568387	    -18.63921193
     11.02000000	      0.43955541	     -4.00237577	     -7.93570863	      2.17338932	      1.04916638	      1.02462173	     21.74650394	      9.09886571	     -4.14359002	     24.25631589	      0.42335258	     -0.79783116	     -9.34231724	     -1.90185946	     -6.64415797	     56.88299034	      0.99279547	    -17.86597976
     11.02666667	      0.83542378	     -4.61057562	     -8.13807657	      2.17223730	      1.04412461	      1.02492555	     21.25247025	      9.77134881	     -4.21717853	     25.70768783	      0.44868380	      0.38453787	     -8.44787942	     -2.87119586	     -6.94095006	     60.30653339	      1.05254757	    -17.10288317
     11.03333333	      1.60205568	     -5.26627849	     -8.45148231	      2.17093165	      1.03920045	      1.02536196	     20.37881066	     10.47275851	     -4.20339550	     27.37822783	      0.47784022	      1.98379774	     -7.99384361	     -3.87634452	     -7.41236012	     63.59102172	      1.10987270	    -16.44295864
     11.04000000	      2.07716781	     -5.98404418	     -8.77485559	      2.16943284	      1.03374366	      1.02587772	     19.84898522	     11.25413353	     -4.31095876	     29.20730322	      0.50976361	      3.61406990	     -7.15586983	     -5.09784959	     -7.90953219	     66.95674029	      1.16861557	    -15.82224709
     11.04666667	      2.71861521	     -6.67062374	     -9.11648143	      2.16775508	      1.02844734	      1.02636488	     19.13571354	     11.98613310	     -4.31972679	     31.12210813	      0.54318326	      5.65422010	     -6.48069301	     -6.24644221	     -8.32773294	     70.17630616	      1.22480760	    -15.35058201
     11.05333333	      2.48248386	     -7.26292469	     -9.53733959	      2.16576238	      1.02208852	      1.02704060	     19.47704523	     12.74081522	     -4.39649831	     33.23617978	      0.58008077	      7.52048812	     -4.69931078	     -7.53642469	     -8.66053716	     73.57408578	      1.28411004	    -14.80509850
     11.06000000	      2.66817681	     -7.94939282	     -9.95317548	      2.16362868	      1.01647048	      1.02768019	     19.25067934	     13.54132619	     -4.35528211	     35.20206966	      0.61439202	      9.53048298	     -3.41673732	     -8.85995022	     -8.94820048	     76.71727851	      1.33896910	    -14.36518453
     11.06666667	      2.70360880	     -8.56564415	    -10.36858172	      2.16130450	      1.01098810	      1.02833130	     19.16669263	     14.28971409	     -4.24804575	     37.12319313	      0.64792195	     11.49484754	     -1.89796385	    -10.13452525	     -9.07374308	     79.74465833	      1.39180685	    -13.92932775
     11.07333333	      2.59808825	     -9.12268492	    -10.77036891	      2.15879766	      1.00578684	      1.02896719	     19.18571171	     15.00212633	     -4.05074691	     38.92269155	      0.67932912	     13.36855243	     -0.14131577	    -11.36849307	     -9.02910394	     82.62944100	      1.44215580	    -13.53213383
     11.08000000	      2.48896452	     -9.69688773	    -11.14390343	      2.15622630	      1.00112055	      1.02956472	     19.10263203	     15.72883776	     -3.76497601	     40.52217157	      0.70724531	     15.07539575	      1.65333758	    -12.60953578	     -8.83680871	     85.30694803	      1.48888712	    -13.12343806
     11.08666667	      2.73137225	    -10.16363344	    -11.42687282	      2.15363611	      0.99741797	      1.03007970	     18.54845743	     16.24971005	     -3.40773925	     41.93948252	      0.73198206	     16.78576538	      3.09314854	    -13.66415020	     -8.59274776	     87.67167054	      1.53015931	    -12.60064661
     11.09333333	      2.10449406	    -10.54192362	    -11.69161284	      2.15094229	      0.99343642	      1.03052569	     18.88040746	     16.82683490	     -3.04650146	     43.15220124	      0.75314799	     17.99837625	      5.69609265	    -14.71176921	     -7.93028427	     90.00474164	      1.57087908	    -12.18416899
     11.10000000	      1.75971473	    -10.61078721	    -11.84724310	      2.14825895	      0.99040263	      1.03082414	     18.87690584	     16.96959785	     -2.67738635	     44.25161545	      0.77233639	     19.27976054	      8.07602289	    -15.26987398	     -7.19418720	     91.96494051	      1.60509101	    -11.75134174
